# xmcd CD database file
#
# Track frame offsets:
#	150
#	22664
#	42949
#	65779
#	83036
#	109504
#	130631
#	154717
#	169848
#	185536
#	206232
#	223731
#	244758
#	260967
#
# Disc length: 3801 seconds
#
# Revision: 0
# Processed by: cddbd v1.5.2PL0 Copyright (c) Steve Scherf et al.
# Submitted via: CDex 2.12
#
DISCID=c50ed70e
DTITLE=jazz.Seasons - Autumn Leaves
DYEAR=2002
DGENRE=Jazz
TTITLE0=Stolen Moments
TTITLE1=Autumn Leaves
TTITLE2=My Funny Valentine
TTITLE3=Lucky Southern
TTITLE4=Gob Bless The Child
TTITLE5=James
TTITLE6=Bewitched
TTITLE7=Four On Six
TTITLE8=There Will Never Be Another You
TTITLE9=How Insensitive
TTITLE10=Seven Steps To Heaven
TTITLE11=Sometimes I See
TTITLE12=Four
TTITLE13=Focus Waltz
EXTD=YEAR: 2002
EXTT0=
EXTT1=
EXTT2=
EXTT3=
EXTT4=
EXTT5=
EXTT6=
EXTT7=
EXTT8=
EXTT9=
EXTT10=
EXTT11=
EXTT12=
EXTT13=
PLAYORDER=
